<svg width="200" height="120" viewBox="0 0 568 184" fill="none" xmlns="http://www.w3.org/2000/svg">
<path d="M82.3511 65.2595H65.6412L47 117.74H60.2672L64.0458 106.572H83.5267L87.3893 117.74H100.656L82.3511 65.2595ZM80.5878 96.1603H66.9008L73.8702 75.5878L80.5878 96.1603Z" fill="#233A6C"/>
<path d="M126.4 117.74V65.2595H113.049V117.74H126.4Z" fill="#233A6C"/>
<path d="M157.552 100.611L163.681 100.107L174.178 117.74H189.208L175.773 97C182.827 94.313 186.521 88.9389 186.521 81.8855C186.521 71.7252 179.216 65.2595 165.277 65.2595C165.781 65.2595 144.201 65.2595 144.201 65.2595V117.74H157.552V100.611ZM157.3 90.7023V75.8397C157.3 75.8397 162.674 75.8397 162.926 75.8397C169.643 75.8397 172.834 78.1068 172.834 82.7252C172.834 87.7633 169.727 90.1145 164.017 90.5343L157.3 90.7023Z" fill="#233A6C"/>
<path d="M268.055 76.4275V65.2595H221.284V76.4275H237.993V117.74H251.345V76.4275H268.055Z" fill="#233A6C"/>
<path d="M334.121 91.2901C334.121 73.5725 322.282 64 306.663 64C291.045 64 279.121 75 279.121 91.626C279.121 109.344 290.961 119 306.496 119C322.114 119 334.121 107.916 334.121 91.2901ZM320.686 91.626C320.686 101.45 315.564 108.252 306.747 108.252C297.763 108.252 292.557 101.366 292.557 91.2901C292.557 81.4657 297.595 74.7481 306.496 74.7481C315.396 74.7481 320.686 81.5496 320.686 91.626Z" fill="#233A6C"/>
<path d="M404.234 65.2595H387.524L368.883 117.74H382.15L385.929 106.572H405.41L409.272 117.74H422.539L404.234 65.2595ZM402.471 96.1603H388.784L395.753 75.5878L402.471 96.1603Z" fill="#233A6C"/>
<path d="M470.199 117.74V106.572H448.199V65.2595H434.848V117.74H470.199Z" fill="#233A6C"/>
<path d="M520.541 117.74V106.572H498.541V65.2595H485.19V117.74H520.541Z" fill="#233A6C"/>
</svg>
